<?xml version="1.0" encoding="utf-8"?><svg width="830.0000000000195" height="281.99999999998226" xmlns="http://www.w3.org/2000/svg"><polyline fill="none" stroke="#cccccc" stroke-width="5px" points="143.6299999999946,36.6100000000813 170.02999999995438,43.790000000143436 " /><polyline fill="none" stroke="#cccccc" stroke-width="5px" points="-8.919999999967842,24.129999999900064 44.33999999999827,37.03000000001566 " /><polyline fill="none" stroke="#cccccc" stroke-width="5px" points="44.33999999999827,37.03000000001566 54.289999999923566,38.239999999944985 143.6299999999946,36.6100000000813 " /><polyline fill="none" stroke="#cccccc" stroke-width="5px" points="245.75999999996156,41.38999999980797 259.81000000001586,41.080000000448535 " /><polyline fill="none" stroke="#cccccc" stroke-width="5px" points="170.02999999995438,43.790000000143436 209.59999999998757,42.20000000003665 245.75999999996156,41.38999999980797 " /><polyline fill="none" stroke="#cccccc" stroke-width="5px" points="309.41000000002105,39.960000000149876 338.7599999999935,30.89000000002784 " /><polyline fill="none" stroke="#cccccc" stroke-width="5px" points="259.81000000001586,41.080000000448535 309.41000000002105,39.960000000149876 " /><polyline fill="none" stroke="#cccccc" stroke-width="5px" points="387.3699999999758,29.810000000196623 398.53000000000804,29.56000000011727 " /><polyline fill="none" stroke="#cccccc" stroke-width="5px" points="338.7599999999935,30.89000000002784 387.3699999999758,29.810000000196623 " /><polyline fill="none" stroke="#cccccc" stroke-width="5px" points="443.4599999999733,28.559999999799856 481.6799999998622,27.46000000044546 " /><polyline fill="none" stroke="#cccccc" stroke-width="5px" points="398.53000000000804,29.56000000011727 443.4599999999733,28.559999999799856 " /><polyline fill="none" stroke="#cccccc" stroke-width="5px" points="539.2799999999198,26.12000000041803 550.1499999999382,25.870000000338677 " /><polyline fill="none" stroke="#cccccc" stroke-width="5px" points="481.6799999998622,27.46000000044546 539.2799999999198,26.12000000041803 " /><polyline fill="none" stroke="#cccccc" stroke-width="5px" points="561.5499999999329,25.610000000142463 572.589999999984,25.34999999994625 " /><polyline fill="none" stroke="#cccccc" stroke-width="5px" points="550.1499999999382,25.870000000338677 561.5499999999329,25.610000000142463 " /><polyline fill="none" stroke="#cccccc" stroke-width="5px" points="750.5799999998785,21.190000000359532 767.7199999999829,27.370000000104255 955.8799999998869,18.15999999976725 1108.819999999966,5.999999999772854 1206.6899999998882,-5.110000000030368 1295.8699999998657,-16.169999999959827 1396.2199999999925,-28.129999999748634 1411.9899999998963,-29.750000000206 1570.9399999998652,-67.52999999974918 1711.5900000000294,-109.34999999960837 2201.840000000033,-284.0299999995466 2227.9299999999225,-279.16000000018925 " /><polyline fill="none" stroke="#cccccc" stroke-width="5px" points="572.589999999984,25.34999999994625 750.5799999998785,21.190000000359532 " /></svg>