<?xml version="1.0" encoding="utf-8"?><svg width="830.0000000000195" height="281.99999999998226" xmlns="http://www.w3.org/2000/svg"><polyline fill="none" stroke="black" stroke-width="5px" street_name="Turnerstraße" points="179.60999999999672,-40.949999999639886 177.15999999996512,-31.6800000000228 174.47999999991026,-21.53000000006955 169.10999999986131,1.3400000000274303 160.78999999997734,34.37000000019452 " /><polyline fill="none" stroke="black" stroke-width="5px" street_name="Gerichtstraße" points="11.729999999943174,128.58999999991738 -87.26000000010003,212.72000000038815 -174.69000000005508,288.04000000022256 -193.74000000009772,296.39999999986344 " /><polyline fill="none" stroke="black" stroke-width="5px" street_name="Luisenstraße" points="-87.26000000010003,212.72000000038815 29.55000000000041,257.78000000045153 92.65999999996666,282.40999999979976 98.99999999998243,284.9500000003502 177.0999999999745,314.05000000006566 181.5799999999257,315.8700000000181 252.05999999986517,344.530000000276 " /><polyline fill="none" stroke="black" stroke-width="5px" street_name="Mittelstraße" points="323.5000000000099,37.129999999763186 319.9600000000302,41.03999999998109 286.9199999999239,78.22000000032858 195.49999999988188,182.09999999996285 " /><polyline fill="none" stroke="black" stroke-width="5px" street_name="Mittelstraße" points="195.49999999988188,182.09999999996285 98.99999999998243,284.9500000003502 " /><polyline fill="none" stroke="black" stroke-width="5px" street_name="Karlstraße" points="268.23999999994185,203.3900000000699 177.0999999999745,314.05000000006566 " /><polyline fill="none" stroke="black" stroke-width="5px" street_name="Oelmühlenstraße" points="463.81999999987044,71.06999999990648 466.3100000000142,73.68999999997072 469.0099999999475,75.49000000039996 472.0999999999975,77.29000000011865 478.03000000001816,79.45999999989794 525.7499999999027,90.99000000034607 551.630000000003,97.29000000007204 568.1700000000234,101.42000000001872 582.3899999999327,104.84000000019478 606.449999999903,110.2400000000614 628.94,114.65999999984433 642.2199999999378,117.02999999982921 " /><polyline fill="none" stroke="black" stroke-width="5px" street_name="Alsenstraße" points="551.630000000003,97.29000000007204 550.6799999999146,98.66000000045005 536.5799999999865,120.40000000013151 505.59999999997273,168.1699999998898 448.8099999999662,255.72999999994295 " /><polyline fill="none" stroke="black" stroke-width="5px" street_name="Alsenstraße" points="430.0499999999374,250.45000000005757 342.3099999999124,375.92999999986887 " /><polyline fill="none" stroke="black" stroke-width="5px" street_name="Bielsteinstraße" points="512.8499999999647,275.890000000345 451.84000000002555,356.4500000003079 " /><polyline fill="none" stroke="black" stroke-width="10px" street_name="Teutoburger Straße" points="752.8499999999383,304.0300000002105 757.679999999894,293.78999999991606 759.7199999999304,251.4200000000244 755.6199999999791,237.95999999975947 " /><polyline fill="none" stroke="black" stroke-width="5px" street_name="" points="790.4599999999817,151.48000000024808 779.2099999999635,141.3100000000611 " /><polyline fill="none" stroke="black" stroke-width="5px" street_name="" points="893.0099999998831,259.7000000001515 891.9799999999257,250.3799999999501 888.7299999999598,231.6200000002766 887.7899999999884,226.95999999982064 885.5399999999847,214.679999999845 824.8899999999892,200.33999999995444 " /><polyline fill="none" stroke="black" stroke-width="5px" street_name="" points="796.9499999999741,249.33999999987577 804.0499999999895,238.17000000008193 805.5699999999888,235.77999999986332 822.9899999999901,207.90000000019404 823.6999999999384,206.89999999987663 " /><polyline fill="none" stroke="black" stroke-width="10px" street_name="Oelmühlenstraße" points="814.0499999999662,135.74000000033948 803.7999999999101,133.13999999979842 792.8699999999012,130.93000000026222 780.7699999998974,128.80000000023983 " /><polyline fill="none" stroke="black" stroke-width="5px" street_name="" points="82.89999999995245,34.970000000100754 83.0199999999337,35.91999999983386 83.11999999985886,36.76999999981945 " /><polyline fill="none" stroke="black" stroke-width="10px" street_name="Teutoburger Straße" points="763.4899999999334,114.65999999984433 762.9999999998915,123.44000000013011 762.7899999999244,127.26000000000681 " /><polyline fill="none" stroke="black" stroke-width="5px" street_name="August-Bebel-Straße" points="464.5499999998748,-40.86000000000922 464.6399999998607,-31.45000000017717 464.7900000000149,7.250000000169621 " /><polyline fill="none" stroke="black" stroke-width="5px" street_name="" points="781.7199999999857,118.1700000003616 788.2600000000295,115.60000000017112 790.2200000000192,114.34000000036803 791.5199999999345,112.82999999977505 792.8299999999666,109.76000000013641 794.0800000000081,106.21999999997911 794.649999999919,102.5099999999668 795.1099999999656,98.06999999995014 792.3199999998687,71.42999999985022 789.3599999999168,69.76000000022964 786.0700000000165,68.72000000015532 765.7699999999323,65.27999999974554 " /><polyline fill="none" stroke="black" stroke-width="5px" street_name="August-Bebel-Straße" points="463.81999999987044,71.06999999990648 461.5899999999229,72.14000000033138 457.9099999999059,74.98000000012439 453.28999999991737,81.02000000036469 342.74999999990285,225.0400000001207 252.05999999986517,344.530000000276 206.60999999986274,403.99000000022056 146.23000000000275,482.9800000003104 144.5900000000222,485.1399999999728 137.88999999988505,492.89000000030114 " /><polyline fill="none" stroke="black" stroke-width="5px" street_name="Oelmühlenstraße" points="642.2199999999378,117.02999999982921 658.8199999999489,119.7300000001178 676.0999999999128,122.04000000011206 690.7799999998688,123.46000000036383 704.3799999999933,124.54000000019505 721.9599999999104,125.7700000003581 743.5599999999099,126.70999999997434 " /><polyline fill="none" stroke="black" stroke-width="10px" street_name="Teutoburger Straße" points="761.6899999998594,140.44999999995866 761.0899999999532,147.80999999999267 759.4400000000335,167.90000000028726 758.0899999998892,184.27000000045268 757.7299999999454,188.64000000036185 756.4300000000301,204.55000000012546 " /><polyline fill="none" stroke="black" stroke-width="5px" street_name="" points="804.3199999999473,299.49000000044634 812.6999999999996,286.710000000312 789.6399999999915,281.3899999999592 " /><polyline fill="none" stroke="black" stroke-width="5px" street_name="Jüngststraße" points="123.4499999998917,160.17000000019266 119.05999999992644,164.37000000024682 29.55000000000041,257.78000000045153 " /><polyline fill="none" stroke="black" stroke-width="5px" street_name="Rohrteichstraße" points="195.49999999988188,182.09999999996285 257.75999999986254,200.32000000043126 268.23999999994185,203.3900000000699 270.39000000002033,204.02000000032672 342.74999999990285,225.0400000001207 " /><polyline fill="none" stroke="black" stroke-width="10px" street_name="Teutoburger Straße" points="772.2599999999247,-53.17999999974177 771.6399999999623,-41.110000000088576 771.4899999999858,-33.71999999970399 768.4599999999264,22.429999999928895 " /><polyline fill="none" stroke="black" stroke-width="5px" street_name="" points="788.869999999875,191.8799999998555 824.8899999999892,200.33999999995444 " /><polyline fill="none" stroke="black" stroke-width="10px" street_name="Teutoburger Straße" points="755.6199999999791,237.95999999975947 750.3699999999114,251.2100000004125 748.4999999999076,292.43000000036545 752.8499999999383,304.0300000002105 " /><polyline fill="none" stroke="black" stroke-width="5px" street_name="" points="790.4599999999817,151.48000000024808 788.869999999875,191.8799999998555 758.0899999998892,184.27000000045268 " /><polyline fill="none" stroke="black" stroke-width="5px" street_name="Bielsteinstraße" points="642.2199999999378,117.02999999982921 641.3900000000083,118.60999999981914 631.8699999999567,136.83000000028755 612.540000000017,173.55000000023324 591.4699999999939,213.57000000037374 580.7100000000175,234.00000000037835 572.8799999999978,243.86999999990166 552.6200000000258,269.6200000002591 540.8499999999706,284.5800000002896 " /><polyline fill="none" stroke="black" stroke-width="5px" street_name="" points="24.739999999923157,21.92000000036387 29.82999999989744,22.020000000111395 " /><polyline fill="none" stroke="black" stroke-width="5px" street_name="" points="822.5099999998874,204.2799999998124 824.8899999999892,200.33999999995444 846.8899999998669,163.8700000000881 " /><polyline fill="none" stroke="black" stroke-width="5px" street_name="" points="790.4599999999817,151.48000000024808 846.8899999998669,163.8700000000881 884.1799999999011,172.46000000028516 " /><polyline fill="none" stroke="black" stroke-width="5px" street_name="" points="741.3999999998921,115.00000000026489 741.209999999981,117.96000000003914 743.969999999905,122.98000000043885 743.5599999999099,126.70999999997434 " /><polyline fill="none" stroke="black" stroke-width="5px" street_name="" points="704.3799999999933,124.54000000019505 704.6199999999558,122.00999999976147 706.1999999999457,100.84999999975252 706.8099999999688,92.92000000016287 " /><polyline fill="none" stroke="black" stroke-width="5px" street_name="" points="712.8299999999754,101.01000000020121 706.1999999999457,100.84999999975252 " /><polyline fill="none" stroke="black" stroke-width="5px" street_name="" points="711.7299999999104,32.7500000004477 711.0899999998921,25.00000000011937 " /><polyline fill="none" stroke="black" stroke-width="10px" street_name="Teutoburger Straße" points="756.4300000000301,204.55000000012546 755.6199999999791,237.95999999975947 " /><polyline fill="none" stroke="black" stroke-width="5px" street_name="Ravensberger Straße" points="81.06999999988318,41.31000000029417 83.75999999987726,41.260000000420405 86.55999999991337,41.2099999998361 " /><polyline fill="none" stroke="black" stroke-width="5px" street_name="Ravensberger Straße" points="86.55999999991337,41.2099999998361 114.11999999992872,40.75000000014484 144.94999999996594,39.9800000003836 159.09000000000617,40.890000000359805 " /><polyline fill="none" stroke="black" stroke-width="5px" street_name="Ravensberger Straße" points="-76.05000000001638,9.930000000224481 -66.99000000001121,12.230000000101881 24.50999999989989,35.760000000095715 42.86999999987273,40.24999999998613 52.64999999994302,41.689999999761085 81.06999999988318,41.31000000029417 " /><polyline fill="none" stroke="black" stroke-width="5px" street_name="" points="772.589999999873,307.8899999998441 778.8500000000198,298.1500000004189 789.6399999999915,281.3899999999592 808.2499999998661,252.44999999998185 " /><polyline fill="none" stroke="black" stroke-width="5px" street_name="" points="825.3699999999142,210.59000000036576 823.6999999999384,206.89999999987663 822.5099999998874,204.2799999998124 " /><polyline fill="none" stroke="black" stroke-width="5px" street_name="" points="778.7699999999731,218.7599999999179 756.4300000000301,204.55000000012546 " /><polyline fill="none" stroke="black" stroke-width="5px" street_name="" points="778.1599999999501,232.1000000002016 782.4399999998732,233.15000000039276 " /><polyline fill="none" stroke="black" stroke-width="5px" street_name="" points="795.5299999998999,233.97000000002777 794.3499999999659,235.89000000043825 " /><polyline fill="none" stroke="black" stroke-width="5px" street_name="" points="782.4399999998732,233.15000000039276 794.3499999999659,235.89000000043825 802.5699999999247,237.82000000025505 " /><polyline fill="none" stroke="black" stroke-width="5px" street_name="" points="802.5699999999247,237.82000000025505 804.0499999999895,238.17000000008193 " /><polyline fill="none" stroke="black" stroke-width="5px" street_name="August-Bebel-Straße" points="459.47000000001736,54.94999999982042 464.3299999999684,46.09000000002084 465.9699999999489,40.10999999977116 467.0299999999017,35.210000000063246 468.3199999998777,30.420000000219715 468.9599999998961,22.249999999957026 468.8999999999055,16.21999999983359 468.2799999999432,12.470000000064374 467.7199999999715,10.540000000247573 466.66999999995795,8.910000000383888 464.7900000000149,7.250000000169621 " /><polyline fill="none" stroke="black" stroke-width="5px" street_name="August-Bebel-Straße" points="464.7900000000149,7.250000000169621 461.8499999999415,9.440000000182635 460.45999999986264,12.00000000025625 459.70999999997985,15.989999999987958 459.2499999999333,22.799999999989495 458.98999999991474,30.68999999982225 458.7599999998915,39.81999999993491 458.74999999995225,45.98000000015645 459.47000000001736,54.94999999982042 " /><polyline fill="none" stroke="black" stroke-width="5px" street_name="August-Bebel-Straße" points="459.47000000001736,54.94999999982042 459.4499999999613,59.38999999983707 460.2799999998908,63.82000000044741 461.94999999986663,68.2900000001041 463.81999999987044,71.06999999990648 " /><polyline fill="none" stroke="black" stroke-width="10px" street_name="Oelmühlenstraße" points="840.1400000000336,143.58000000029847 819.9899999999261,137.24000000010505 814.0499999999662,135.74000000033948 " /><polyline fill="none" stroke="black" stroke-width="5px" street_name="" points="735.8799999998666,167.48999999975922 759.4400000000335,167.90000000028726 " /><polyline fill="none" stroke="black" stroke-width="5px" street_name="" points="761.6899999998594,140.44999999995866 779.2099999999635,141.3100000000611 779.73999999994,137.20000000034815 " /><polyline fill="none" stroke="black" stroke-width="10px" street_name="Teutoburger Straße" points="765.7699999999323,65.27999999974554 765.3399999998811,74.63000000029751 763.4899999999334,114.65999999984433 " /><polyline fill="none" stroke="black" stroke-width="10px" street_name="Oelmühlenstraße" points="780.7699999998974,128.80000000023983 773.9599999998959,128.12000000010926 762.7899999999244,127.26000000000681 " /><polyline fill="none" stroke="black" stroke-width="10px" street_name="Teutoburger Straße" points="762.7899999999244,127.26000000000681 762.4299999999806,131.49000000041155 762.1699999999621,134.58000000028392 761.6899999998594,140.44999999995866 " /><polyline fill="none" stroke="black" stroke-width="5px" street_name="Oelmühlenstraße" points="743.5599999999099,126.70999999997434 762.7899999999244,127.26000000000681 " /><polyline fill="none" stroke="black" stroke-width="5px" street_name="" points="47.62999999989859,138.73999999987063 60.94000000000932,121.34999999986462 131.67999999996738,141.5100000002667 " /><polyline fill="none" stroke="black" stroke-width="5px" street_name="" points="60.94000000000932,121.34999999986462 67.2299999999737,113.26999999994314 96.0099999998576,110.68000000022948 96.54000000001161,108.70999999994524 79.03999999996358,101.55000000011682 79.88000000000994,99.51999999984196 99.739999999926,97.9499999999689 100.28999999995847,95.79000000030646 84.0300000000127,89.17000000039365 84.67000000003111,87.400000000315 102.21000000001368,85.93000000018946 102.85000000003208,83.91000000003146 89.44999999993541,77.87999999990802 90.17000000000053,76.10999999982937 105.47999999985791,75.07999999987191 105.95999999996053,72.87000000033572 93.59999999993817,67.77000000042221 94.38999999993314,65.70999999979676 108.589999999964,64.62999999996555 111.05999999987404,59.47000000006142 114.15999999986326,56.769999999772835 " /><polyline fill="none" stroke="black" stroke-width="5px" street_name="Ravensberger Straße" points="768.4599999999264,22.429999999928895 786.6799999998619,21.54000000018641 876.2199999999609,16.95999999995479 885.8299999999986,16.459999999796082 " /><polyline fill="none" stroke="black" stroke-width="10px" street_name="Teutoburger Straße" points="768.4599999999264,22.429999999928895 763.0999999999943,31.320000000079062 760.9499999999159,58.16000000038457 765.7699999999323,65.27999999974554 " /><polyline fill="none" stroke="black" stroke-width="10px" street_name="Teutoburger Straße" points="765.7699999999323,65.27999999974554 771.5399999998596,58.620000000075834 773.5399999999615,31.210000000214677 768.4599999999264,22.429999999928895 " /><polyline fill="none" stroke="black" stroke-width="5px" street_name="" points="763.0999999999943,31.320000000079062 773.5399999999615,31.210000000214677 " /><polyline fill="none" stroke="black" stroke-width="5px" street_name="" points="821.000000000005,207.47000000014282 822.9899999999901,207.90000000019404 " /><polyline fill="none" stroke="black" stroke-width="5px" street_name="" points="768.4599999999264,22.429999999928895 756.5399999998945,19.25999999983219 723.6199999999471,20.179999999925257 708.3800000000195,20.59999999985962 695.9900000000018,20.890000000406417 659.9200000000138,21.869999999779565 629.2000000000187,22.65000000036821 623.549999999895,22.770000000349455 566.8399999999351,24.00999999991882 544.6400000000295,24.420000000446862 537.9099999998971,24.549999999834426 496.3699999999349,25.420000000053733 481.59999999999314,25.74000000024057 468.3199999998777,30.420000000219715 " /><polyline fill="none" stroke="black" stroke-width="5px" street_name="" points="723.799999999919,22.570000000143864 723.9600000000123,24.669999999815672 " /><polyline fill="none" stroke="black" stroke-width="5px" street_name="" points="723.6199999999471,20.179999999925257 723.6899999998769,21.079999999784604 " /><polyline fill="none" stroke="black" stroke-width="5px" street_name="" points="723.6899999998769,21.079999999784604 723.799999999919,22.570000000143864 " /><polyline fill="none" stroke="black" stroke-width="5px" street_name="" points="696.1699999999737,23.209999999806996 696.3100000000111,25.33000000042307 " /><polyline fill="none" stroke="black" stroke-width="5px" street_name="" points="695.9900000000018,20.890000000406417 696.0299999999364,21.72000000015828 " /><polyline fill="none" stroke="black" stroke-width="5px" street_name="" points="696.0299999999364,21.72000000015828 696.1699999999737,23.209999999806996 " /><polyline fill="none" stroke="black" stroke-width="5px" street_name="" points="660.0899999998688,24.05999999979258 660.2299999999061,26.3000000003899 " /><polyline fill="none" stroke="black" stroke-width="5px" street_name="" points="659.9200000000138,21.869999999779565 659.9599999999484,22.570000000143864 " /><polyline fill="none" stroke="black" stroke-width="5px" street_name="" points="659.9599999999484,22.570000000143864 660.0899999998688,24.05999999979258 " /><polyline fill="none" stroke="black" stroke-width="5px" street_name="" points="496.53000000002833,27.8600000001461 496.6299999999535,29.839999999836664 " /><polyline fill="none" stroke="black" stroke-width="5px" street_name="" points="496.3699999999349,25.420000000053733 496.42999999992554,26.360000000380523 " /><polyline fill="none" stroke="black" stroke-width="5px" street_name="" points="496.42999999992554,26.360000000380523 496.53000000002833,27.8600000001461 " /><polyline fill="none" stroke="black" stroke-width="5px" street_name="" points="544.6400000000295,24.420000000446862 544.8999999998705,28.480000000286054 " /><polyline fill="none" stroke="black" stroke-width="5px" street_name="" points="623.7199999999277,24.909999999778165 623.7999999999744,25.970000000086202 627.8399999999351,29.56000000011727 627.929999999921,31.50000000005093 " /><polyline fill="none" stroke="black" stroke-width="5px" street_name="" points="623.549999999895,22.770000000349455 623.6099999998856,23.410000000012587 " /><polyline fill="none" stroke="black" stroke-width="5px" street_name="" points="623.6099999998856,23.410000000012587 623.7199999999277,24.909999999778165 " /><polyline fill="none" stroke="black" stroke-width="5px" street_name="Turnerstraße" points="157.78999999991328,45.71999999996024 131.67999999996738,141.5100000002667 126.82999999995559,156.210000000101 123.4499999998917,160.17000000019266 " /><polyline fill="none" stroke="black" stroke-width="5px" street_name="Turnerstraße" points="160.78999999997734,34.37000000019452 159.09000000000617,40.890000000359805 157.78999999991328,45.71999999996024 " /><polyline fill="none" stroke="black" stroke-width="5px" street_name="" points="202.089999999977,51.8499999998312 179.7999999999078,52.07000000027051 " /><polyline fill="none" stroke="black" stroke-width="5px" street_name="" points="209.78999999989867,44.97000000043272 208.92999999997386,45.74000000019396 202.089999999977,51.8499999998312 200.07999999993586,55.61000000042782 201.6099999998744,58.3900000002302 205.180000000027,60.47999999978515 208.79999999987575,62.12999999988256 210.12999999996396,64.54000000033488 208.84999999992715,66.83000000009542 203.8999999999902,68.56000000041717 195.5799999999286,67.39000000024475 187.00000000002603,65.80000000013797 181.6599999999724,62.470000000303116 179.419999999908,58.070000000043365 179.7999999999078,52.07000000027051 174.68999999987744,46.34000000010019 173.9299999998778,45.490000000114605 " /><polyline fill="none" stroke="black" stroke-width="5px" street_name="" points="159.09000000000617,40.890000000359805 168.8099999999082,45.59999999997899 173.9299999998778,45.490000000114605 209.78999999989867,44.97000000043272 213.9500000000183,43.48000000007346 319.9600000000302,41.03999999998109 " /><polyline fill="none" stroke="black" stroke-width="5px" street_name="" points="83.36999999993821,38.630000000239306 83.75999999987726,41.260000000420405 " /><polyline fill="none" stroke="black" stroke-width="5px" street_name="" points="83.11999999985886,36.76999999981945 83.36999999993821,38.630000000239306 " /><polyline fill="none" stroke="black" stroke-width="5px" street_name="" points="808.5899999999312,54.990000000287864 792.3199999998687,71.42999999985022 " /><polyline fill="none" stroke="black" stroke-width="5px" street_name="" points="773.5399999999615,31.210000000214677 790.4099999999303,30.920000000378422 808.5899999999312,54.990000000287864 812.349999999995,56.47999999993658 885.0999999999942,52.6800000002936 889.3899999998566,51.4400000000137 891.6099999998651,47.81000000022573 889.1199999998989,31.140000000107193 928.9499999999507,23.560000000344416 " /><polyline fill="none" stroke="black" stroke-width="5px" street_name="Rohrteichstraße" points="430.0499999999374,250.45000000005757 342.74999999990285,225.0400000001207 " /><polyline fill="none" stroke="black" stroke-width="5px" street_name="Rohrteichstraße" points="540.8499999999706,284.5800000002896 512.8499999999647,275.890000000345 448.8099999999662,255.72999999994295 439.1399999999379,253.01000000013118 430.0499999999374,250.45000000005757 " /><polyline fill="none" stroke="black" stroke-width="5px" street_name="Rohrteichstraße" points="195.49999999988188,182.09999999996285 123.4499999998917,160.17000000019266 " /><polyline fill="none" stroke="black" stroke-width="5px" street_name="Rohrteichstraße" points="123.4499999998917,160.17000000019266 47.62999999989859,138.73999999987063 11.729999999943174,128.58999999991738 " /><polyline fill="none" stroke="black" stroke-width="5px" street_name="Rohrteichstraße" points="-110.33000000004733,92.79000000006476 -101.61000000010745,95.35000000013838 11.729999999943174,128.58999999991738 " /><polyline fill="none" stroke="black" stroke-width="5px" street_name="" points="-133.57000000002728,-6.319999999959691 -96.91000000007221,-0.45999999969126293 -76.3499999999695,5.3399999998759995 -33.260000000012724,16.279999999824213 24.599999999885824,30.089999999916017 42.67999999996164,34.13000000023203 52.379999999985216,35.929999999950724 83.0199999999337,35.91999999983386 145.27999999991437,34.74000000025512 159.09000000000617,40.890000000359805 " /><polyline fill="none" stroke="black" stroke-width="5px" street_name="" points="159.09000000000617,40.890000000359805 170.28999999997296,33.669999999830225 252.4699999998603,31.580000000275276 332.07999999991244,29.57000000023413 392.95999999993114,28.319999999837364 449.4299999999285,27.159999999781803 458.98999999991474,30.68999999982225 " /></svg>