<?xml version="1.0"?>
<svg xmlns="http://www.w3.org/2000/svg" xmlns:svg="http://www.w3.org/2000/svg" width="830.00000000002" height="281.999999999982"><svg:polyline fill="none" stroke="#cccccc" stroke-width="5px" points="143.629999999995,36.6100000000813 170.029999999954,43.7900000001434 "/><svg:polyline fill="none" stroke="#cccccc" stroke-width="5px" points="-8.919999999967843,24.1299999999001 44.3399999999983,37.0300000000157 "/><svg:polyline fill="none" stroke="#cccccc" stroke-width="5px" points="44.3399999999983,37.0300000000157 54.2899999999236,38.239999999945 143.629999999995,36.6100000000813 "/><svg:polyline fill="none" stroke="#cccccc" stroke-width="5px" points="245.759999999962,41.389999999808 259.810000000016,41.0800000004485 "/><svg:polyline fill="none" stroke="#cccccc" stroke-width="5px" points="170.029999999954,43.7900000001434 209.599999999988,42.2000000000367 245.759999999962,41.389999999808 "/><svg:polyline fill="none" stroke="#cccccc" stroke-width="5px" points="309.410000000021,39.9600000001499 338.759999999994,30.8900000000278 "/><svg:polyline fill="none" stroke="#cccccc" stroke-width="5px" points="259.810000000016,41.0800000004485 309.410000000021,39.9600000001499 "/><svg:polyline fill="none" stroke="#cccccc" stroke-width="5px" points="387.369999999976,29.8100000001966 398.530000000008,29.5600000001173 "/><svg:polyline fill="none" stroke="#cccccc" stroke-width="5px" points="338.759999999994,30.8900000000278 387.369999999976,29.8100000001966 "/><svg:polyline fill="none" stroke="#cccccc" stroke-width="5px" points="443.459999999973,28.5599999997999 481.679999999862,27.4600000004455 "/><svg:polyline fill="none" stroke="#cccccc" stroke-width="5px" points="398.530000000008,29.5600000001173 443.459999999973,28.5599999997999 "/><svg:polyline fill="none" stroke="#cccccc" stroke-width="5px" points="539.27999999992,26.120000000418 550.149999999938,25.8700000003387 "/><svg:polyline fill="none" stroke="#cccccc" stroke-width="5px" points="481.679999999862,27.4600000004455 539.27999999992,26.120000000418 "/><svg:polyline fill="none" stroke="#cccccc" stroke-width="5px" points="561.549999999933,25.6100000001425 572.589999999984,25.3499999999462 "/><svg:polyline fill="none" stroke="#cccccc" stroke-width="5px" points="550.149999999938,25.8700000003387 561.549999999933,25.6100000001425 "/><svg:polyline fill="none" stroke="#cccccc" stroke-width="5px" points="750.579999999879,21.1900000003595 767.719999999983,27.3700000001043 955.879999999887,18.1599999997673 1108.81999999997,5.999999999772854 1206.68999999989,-5.110000000030368 1295.86999999987,-16.1699999999598 1396.21999999999,-28.1299999997486 1411.9899999999,-29.750000000206 1570.93999999987,-67.5299999997492 1711.58999999985,-109.349999999608 2201.83999999986,-284.029999999547 2227.92999999992,-279.160000000189 "/><svg:polyline fill="none" stroke="#cccccc" stroke-width="5px" points="572.589999999984,25.3499999999462 750.579999999879,21.1900000003595 "/></svg>
