<?xml version="1.0"?>
<svg xmlns="http://www.w3.org/2000/svg" xmlns:svg="http://www.w3.org/2000/svg" width="830.00000000002" height="281.999999999982"><svg:polyline fill="none" stroke="black" stroke-width="5px" street_name="Turnerstra&#xDF;e" points="179.609999999997,-40.9499999996399 177.159999999965,-31.6800000000228 174.47999999991,-21.5300000000695 169.110000000039,1.34000000002743 160.789999999977,34.3700000001945 "/><svg:polyline fill="none" stroke="black" stroke-width="5px" street_name="Gerichtstra&#xDF;e" points="11.7299999999432,128.589999999917 -87.2600000001,212.720000000388 -174.690000000055,288.040000000223 -193.740000000098,296.399999999863 "/><svg:polyline fill="none" stroke="black" stroke-width="5px" street_name="Luisenstra&#xDF;e" points="-87.2600000001,212.720000000388 29.5500000000004,257.780000000452 92.6599999999667,282.4099999998 98.9999999999824,284.95000000035 177.099999999975,314.050000000066 181.579999999926,315.870000000018 252.059999999865,344.530000000276 "/><svg:polyline fill="none" stroke="black" stroke-width="5px" street_name="Mittelstra&#xDF;e" points="323.50000000001,37.1299999997632 319.96000000003,41.0399999999811 286.919999999924,78.2200000003286 195.499999999882,182.099999999963 "/><svg:polyline fill="none" stroke="black" stroke-width="5px" street_name="Mittelstra&#xDF;e" points="195.499999999882,182.099999999963 98.9999999999824,284.95000000035 "/><svg:polyline fill="none" stroke="black" stroke-width="5px" street_name="Karlstra&#xDF;e" points="268.239999999942,203.39000000007 177.099999999975,314.050000000066 "/><svg:polyline fill="none" stroke="black" stroke-width="5px" street_name="Oelm&#xFC;hlenstra&#xDF;e" points="463.81999999987,71.0699999999065 466.310000000014,73.6899999999707 469.009999999948,75.4900000004 472.099999999998,77.2900000001187 478.030000000018,79.4599999998979 525.749999999903,90.9900000003461 551.630000000003,97.290000000072 568.170000000023,101.420000000019 582.389999999933,104.840000000195 606.449999999903,110.240000000061 628.94,114.659999999844 642.219999999938,117.029999999829 "/><svg:polyline fill="none" stroke="black" stroke-width="5px" street_name="Alsenstra&#xDF;e" points="551.630000000003,97.290000000072 550.679999999915,98.6600000004501 536.579999999987,120.400000000132 505.599999999973,168.16999999989 448.809999999966,255.729999999943 "/><svg:polyline fill="none" stroke="black" stroke-width="5px" street_name="Alsenstra&#xDF;e" points="430.049999999937,250.450000000058 342.309999999912,375.929999999869 "/><svg:polyline fill="none" stroke="black" stroke-width="5px" street_name="Bielsteinstra&#xDF;e" points="512.849999999965,275.890000000345 451.840000000026,356.450000000308 "/><svg:polyline fill="none" stroke="black" stroke-width="10px" street_name="Teutoburger Stra&#xDF;e" points="752.849999999938,304.030000000211 757.679999999894,293.789999999916 759.71999999993,251.420000000024 755.619999999979,237.959999999759 "/><svg:polyline fill="none" stroke="black" stroke-width="5px" street_name="" points="790.459999999982,151.480000000248 779.209999999964,141.310000000061 "/><svg:polyline fill="none" stroke="black" stroke-width="5px" street_name="" points="893.009999999883,259.700000000151 891.979999999926,250.37999999995 888.72999999996,231.620000000277 887.789999999988,226.959999999821 885.539999999985,214.679999999845 824.889999999989,200.339999999954 "/><svg:polyline fill="none" stroke="black" stroke-width="5px" street_name="" points="796.949999999974,249.339999999876 804.049999999989,238.170000000082 805.569999999989,235.779999999863 822.98999999999,207.900000000194 823.699999999938,206.899999999877 "/><svg:polyline fill="none" stroke="black" stroke-width="10px" street_name="Oelm&#xFC;hlenstra&#xDF;e" points="814.049999999966,135.740000000339 803.79999999991,133.139999999798 792.869999999901,130.930000000262 780.769999999897,128.80000000024 "/><svg:polyline fill="none" stroke="black" stroke-width="5px" street_name="" points="82.8999999999525,34.9700000001008 83.0199999999337,35.9199999998339 83.1199999998589,36.7699999998194 "/><svg:polyline fill="none" stroke="black" stroke-width="10px" street_name="Teutoburger Stra&#xDF;e" points="763.489999999933,114.659999999844 762.999999999892,123.44000000013 762.789999999924,127.260000000007 "/><svg:polyline fill="none" stroke="black" stroke-width="5px" street_name="August-Bebel-Stra&#xDF;e" points="464.549999999875,-40.8600000000092 464.640000000038,-31.4500000001772 464.790000000015,7.250000000169621 "/><svg:polyline fill="none" stroke="black" stroke-width="5px" street_name="" points="781.719999999986,118.170000000362 788.26000000003,115.600000000171 790.220000000019,114.340000000368 791.519999999934,112.829999999775 792.829999999967,109.760000000136 794.080000000008,106.219999999979 794.649999999919,102.509999999967 795.109999999966,98.0699999999501 792.319999999869,71.4299999998502 789.359999999917,69.7600000002296 786.070000000017,68.7200000001553 765.769999999932,65.2799999997455 "/><svg:polyline fill="none" stroke="black" stroke-width="5px" street_name="August-Bebel-Stra&#xDF;e" points="463.81999999987,71.0699999999065 461.589999999923,72.1400000003314 457.909999999906,74.9800000001244 453.289999999917,81.0200000003647 342.749999999903,225.040000000121 252.059999999865,344.530000000276 206.609999999863,403.990000000221 146.230000000003,482.98000000031 144.590000000022,485.139999999973 137.889999999885,492.890000000301 "/><svg:polyline fill="none" stroke="black" stroke-width="5px" street_name="Oelm&#xFC;hlenstra&#xDF;e" points="642.219999999938,117.029999999829 658.819999999949,119.730000000118 676.099999999913,122.040000000112 690.779999999869,123.460000000364 704.379999999993,124.540000000195 721.95999999991,125.770000000358 743.55999999991,126.709999999974 "/><svg:polyline fill="none" stroke="black" stroke-width="10px" street_name="Teutoburger Stra&#xDF;e" points="761.690000000037,140.449999999959 761.089999999953,147.809999999993 759.440000000033,167.900000000287 758.089999999889,184.270000000453 757.729999999945,188.640000000362 756.43000000003,204.550000000125 "/><svg:polyline fill="none" stroke="black" stroke-width="5px" street_name="" points="804.319999999947,299.490000000446 812.7,286.710000000312 789.639999999991,281.389999999959 "/><svg:polyline fill="none" stroke="black" stroke-width="5px" street_name="J&#xFC;ngststra&#xDF;e" points="123.449999999892,160.170000000193 119.059999999926,164.370000000247 29.5500000000004,257.780000000452 "/><svg:polyline fill="none" stroke="black" stroke-width="5px" street_name="Rohrteichstra&#xDF;e" points="195.499999999882,182.099999999963 257.759999999863,200.320000000431 268.239999999942,203.39000000007 270.39000000002,204.020000000327 342.749999999903,225.040000000121 "/><svg:polyline fill="none" stroke="black" stroke-width="10px" street_name="Teutoburger Stra&#xDF;e" points="772.259999999925,-53.1799999997418 771.639999999962,-41.1100000000886 771.489999999986,-33.719999999704 768.459999999926,22.4299999999289 "/><svg:polyline fill="none" stroke="black" stroke-width="5px" street_name="" points="788.869999999875,191.879999999855 824.889999999989,200.339999999954 "/><svg:polyline fill="none" stroke="black" stroke-width="10px" street_name="Teutoburger Stra&#xDF;e" points="755.619999999979,237.959999999759 750.369999999911,251.210000000412 748.499999999908,292.430000000365 752.849999999938,304.030000000211 "/><svg:polyline fill="none" stroke="black" stroke-width="5px" street_name="" points="790.459999999982,151.480000000248 788.869999999875,191.879999999855 758.089999999889,184.270000000453 "/><svg:polyline fill="none" stroke="black" stroke-width="5px" street_name="Bielsteinstra&#xDF;e" points="642.219999999938,117.029999999829 641.390000000008,118.609999999819 631.869999999957,136.830000000288 612.540000000017,173.550000000233 591.469999999994,213.570000000374 580.710000000018,234.000000000378 572.879999999998,243.869999999902 552.620000000026,269.620000000259 540.849999999971,284.58000000029 "/><svg:polyline fill="none" stroke="black" stroke-width="5px" street_name="" points="24.7399999999232,21.9200000003639 29.8299999998974,22.0200000001114 "/><svg:polyline fill="none" stroke="black" stroke-width="5px" street_name="" points="822.509999999887,204.279999999812 824.889999999989,200.339999999954 846.889999999867,163.870000000088 "/><svg:polyline fill="none" stroke="black" stroke-width="5px" street_name="" points="790.459999999982,151.480000000248 846.889999999867,163.870000000088 884.179999999901,172.460000000285 "/><svg:polyline fill="none" stroke="black" stroke-width="5px" street_name="" points="741.399999999892,115.000000000265 741.209999999981,117.960000000039 743.969999999905,122.980000000439 743.55999999991,126.709999999974 "/><svg:polyline fill="none" stroke="black" stroke-width="5px" street_name="" points="704.379999999993,124.540000000195 704.619999999956,122.009999999761 706.199999999946,100.849999999753 706.809999999969,92.9200000001629 "/><svg:polyline fill="none" stroke="black" stroke-width="5px" street_name="" points="712.829999999975,101.010000000201 706.199999999946,100.849999999753 "/><svg:polyline fill="none" stroke="black" stroke-width="5px" street_name="" points="711.72999999991,32.7500000004477 711.089999999892,25.0000000001194 "/><svg:polyline fill="none" stroke="black" stroke-width="10px" street_name="Teutoburger Stra&#xDF;e" points="756.43000000003,204.550000000125 755.619999999979,237.959999999759 "/><svg:polyline fill="none" stroke="black" stroke-width="5px" street_name="Ravensberger Stra&#xDF;e" points="81.0699999998832,41.3100000002942 83.7599999998773,41.2600000004204 86.5599999999134,41.2099999998361 "/><svg:polyline fill="none" stroke="black" stroke-width="5px" street_name="Ravensberger Stra&#xDF;e" points="86.5599999999134,41.2099999998361 114.119999999929,40.7500000001448 144.949999999966,39.9800000003836 159.090000000006,40.8900000003598 "/><svg:polyline fill="none" stroke="black" stroke-width="5px" street_name="Ravensberger Stra&#xDF;e" points="-76.0500000000164,9.930000000224481 -66.9900000000112,12.2300000001019 24.5099999998999,35.7600000000957 42.8699999998727,40.2499999999861 52.649999999943,41.6899999997611 81.0699999998832,41.3100000002942 "/><svg:polyline fill="none" stroke="black" stroke-width="5px" street_name="" points="772.589999999873,307.889999999844 778.85000000002,298.150000000419 789.639999999991,281.389999999959 808.249999999866,252.449999999982 "/><svg:polyline fill="none" stroke="black" stroke-width="5px" street_name="" points="825.369999999914,210.590000000366 823.699999999938,206.899999999877 822.509999999887,204.279999999812 "/><svg:polyline fill="none" stroke="black" stroke-width="5px" street_name="" points="778.769999999973,218.759999999918 756.43000000003,204.550000000125 "/><svg:polyline fill="none" stroke="black" stroke-width="5px" street_name="" points="778.15999999995,232.100000000202 782.439999999873,233.150000000393 "/><svg:polyline fill="none" stroke="black" stroke-width="5px" street_name="" points="795.5299999999,233.970000000028 794.349999999966,235.890000000438 "/><svg:polyline fill="none" stroke="black" stroke-width="5px" street_name="" points="782.439999999873,233.150000000393 794.349999999966,235.890000000438 802.569999999925,237.820000000255 "/><svg:polyline fill="none" stroke="black" stroke-width="5px" street_name="" points="802.569999999925,237.820000000255 804.049999999989,238.170000000082 "/><svg:polyline fill="none" stroke="black" stroke-width="5px" street_name="August-Bebel-Stra&#xDF;e" points="459.470000000017,54.9499999998204 464.329999999968,46.0900000000208 465.969999999949,40.1099999997712 467.029999999902,35.2100000000632 468.319999999878,30.4200000002197 468.959999999896,22.249999999957 468.899999999906,16.2199999998336 468.279999999943,12.4700000000644 467.719999999971,10.5400000002476 466.669999999958,8.910000000383889 464.790000000015,7.250000000169621 "/><svg:polyline fill="none" stroke="black" stroke-width="5px" street_name="August-Bebel-Stra&#xDF;e" points="464.790000000015,7.250000000169621 461.849999999941,9.440000000182636 460.459999999863,12.0000000002563 459.70999999998,15.989999999988 459.249999999933,22.7999999999895 458.989999999915,30.6899999998222 458.759999999891,39.8199999999349 458.749999999952,45.9800000001565 459.470000000017,54.9499999998204 "/><svg:polyline fill="none" stroke="black" stroke-width="5px" street_name="August-Bebel-Stra&#xDF;e" points="459.470000000017,54.9499999998204 459.449999999961,59.3899999998371 460.279999999891,63.8200000004474 461.949999999867,68.2900000001041 463.81999999987,71.0699999999065 "/><svg:polyline fill="none" stroke="black" stroke-width="10px" street_name="Oelm&#xFC;hlenstra&#xDF;e" points="840.139999999856,143.580000000298 819.989999999926,137.240000000105 814.049999999966,135.740000000339 "/><svg:polyline fill="none" stroke="black" stroke-width="5px" street_name="" points="735.879999999867,167.489999999759 759.440000000033,167.900000000287 "/><svg:polyline fill="none" stroke="black" stroke-width="5px" street_name="" points="761.690000000037,140.449999999959 779.209999999964,141.310000000061 779.73999999994,137.200000000348 "/><svg:polyline fill="none" stroke="black" stroke-width="10px" street_name="Teutoburger Stra&#xDF;e" points="765.769999999932,65.2799999997455 765.339999999881,74.6300000002975 763.489999999933,114.659999999844 "/><svg:polyline fill="none" stroke="black" stroke-width="10px" street_name="Oelm&#xFC;hlenstra&#xDF;e" points="780.769999999897,128.80000000024 773.959999999896,128.120000000109 762.789999999924,127.260000000007 "/><svg:polyline fill="none" stroke="black" stroke-width="10px" street_name="Teutoburger Stra&#xDF;e" points="762.789999999924,127.260000000007 762.429999999981,131.490000000412 762.169999999962,134.580000000284 761.690000000037,140.449999999959 "/><svg:polyline fill="none" stroke="black" stroke-width="5px" street_name="Oelm&#xFC;hlenstra&#xDF;e" points="743.55999999991,126.709999999974 762.789999999924,127.260000000007 "/><svg:polyline fill="none" stroke="black" stroke-width="5px" street_name="" points="47.6299999998986,138.739999999871 60.9400000000093,121.349999999865 131.679999999967,141.510000000267 "/><svg:polyline fill="none" stroke="black" stroke-width="5px" street_name="" points="60.9400000000093,121.349999999865 67.2299999999737,113.269999999943 96.0099999998576,110.680000000229 96.5400000000116,108.709999999945 79.0399999999636,101.550000000117 79.8800000000099,99.519999999842 99.739999999926,97.9499999999689 100.289999999958,95.7900000003065 84.0300000000127,89.1700000003937 84.6699999998535,87.400000000315 102.210000000014,85.9300000001895 102.849999999854,83.9100000000315 89.4499999999354,77.879999999908 90.1700000000005,76.1099999998294 105.480000000036,75.0799999998719 105.959999999961,72.8700000003357 93.5999999999382,67.7700000004222 94.3899999999331,65.7099999997968 108.589999999964,64.6299999999655 111.059999999874,59.4700000000614 114.159999999863,56.7699999997728 "/><svg:polyline fill="none" stroke="black" stroke-width="5px" street_name="Ravensberger Stra&#xDF;e" points="768.459999999926,22.4299999999289 786.679999999862,21.5400000001864 876.219999999961,16.9599999999548 885.829999999999,16.4599999997961 "/><svg:polyline fill="none" stroke="black" stroke-width="10px" street_name="Teutoburger Stra&#xDF;e" points="768.459999999926,22.4299999999289 763.099999999994,31.3200000000791 760.949999999916,58.1600000003846 765.769999999932,65.2799999997455 "/><svg:polyline fill="none" stroke="black" stroke-width="10px" street_name="Teutoburger Stra&#xDF;e" points="765.769999999932,65.2799999997455 771.540000000037,58.6200000000758 773.539999999962,31.2100000002147 768.459999999926,22.4299999999289 "/><svg:polyline fill="none" stroke="black" stroke-width="5px" street_name="" points="763.099999999994,31.3200000000791 773.539999999962,31.2100000002147 "/><svg:polyline fill="none" stroke="black" stroke-width="5px" street_name="" points="821.000000000005,207.470000000143 822.98999999999,207.900000000194 "/><svg:polyline fill="none" stroke="black" stroke-width="5px" street_name="" points="768.459999999926,22.4299999999289 756.539999999894,19.2599999998322 723.619999999947,20.1799999999253 708.38000000002,20.5999999998596 695.990000000002,20.8900000004064 659.920000000014,21.8699999997796 629.200000000019,22.6500000003682 623.549999999895,22.7700000003495 566.839999999935,24.0099999999188 544.639999999852,24.4200000004469 537.909999999897,24.5499999998344 496.369999999935,25.4200000000537 481.599999999993,25.7400000002406 468.319999999878,30.4200000002197 "/><svg:polyline fill="none" stroke="black" stroke-width="5px" street_name="" points="723.799999999919,22.5700000001439 723.960000000012,24.6699999998157 "/><svg:polyline fill="none" stroke="black" stroke-width="5px" street_name="" points="723.619999999947,20.1799999999253 723.689999999877,21.0799999997846 "/><svg:polyline fill="none" stroke="black" stroke-width="5px" street_name="" points="723.689999999877,21.0799999997846 723.799999999919,22.5700000001439 "/><svg:polyline fill="none" stroke="black" stroke-width="5px" street_name="" points="696.169999999974,23.209999999807 696.310000000011,25.3300000004231 "/><svg:polyline fill="none" stroke="black" stroke-width="5px" street_name="" points="695.990000000002,20.8900000004064 696.029999999936,21.7200000001583 "/><svg:polyline fill="none" stroke="black" stroke-width="5px" street_name="" points="696.029999999936,21.7200000001583 696.169999999974,23.209999999807 "/><svg:polyline fill="none" stroke="black" stroke-width="5px" street_name="" points="660.089999999869,24.0599999997926 660.229999999906,26.3000000003899 "/><svg:polyline fill="none" stroke="black" stroke-width="5px" street_name="" points="659.920000000014,21.8699999997796 659.959999999948,22.5700000001439 "/><svg:polyline fill="none" stroke="black" stroke-width="5px" street_name="" points="659.959999999948,22.5700000001439 660.089999999869,24.0599999997926 "/><svg:polyline fill="none" stroke="black" stroke-width="5px" street_name="" points="496.530000000028,27.8600000001461 496.629999999953,29.8399999998367 "/><svg:polyline fill="none" stroke="black" stroke-width="5px" street_name="" points="496.369999999935,25.4200000000537 496.429999999926,26.3600000003805 "/><svg:polyline fill="none" stroke="black" stroke-width="5px" street_name="" points="496.429999999926,26.3600000003805 496.530000000028,27.8600000001461 "/><svg:polyline fill="none" stroke="black" stroke-width="5px" street_name="" points="544.639999999852,24.4200000004469 544.89999999987,28.4800000002861 "/><svg:polyline fill="none" stroke="black" stroke-width="5px" street_name="" points="623.719999999928,24.9099999997782 623.799999999974,25.9700000000862 627.839999999935,29.5600000001173 627.929999999921,31.5000000000509 "/><svg:polyline fill="none" stroke="black" stroke-width="5px" street_name="" points="623.549999999895,22.7700000003495 623.609999999886,23.4100000000126 "/><svg:polyline fill="none" stroke="black" stroke-width="5px" street_name="" points="623.609999999886,23.4100000000126 623.719999999928,24.9099999997782 "/><svg:polyline fill="none" stroke="black" stroke-width="5px" street_name="Turnerstra&#xDF;e" points="157.789999999913,45.7199999999602 131.679999999967,141.510000000267 126.829999999956,156.210000000101 123.449999999892,160.170000000193 "/><svg:polyline fill="none" stroke="black" stroke-width="5px" street_name="Turnerstra&#xDF;e" points="160.789999999977,34.3700000001945 159.090000000006,40.8900000003598 157.789999999913,45.7199999999602 "/><svg:polyline fill="none" stroke="black" stroke-width="5px" street_name="" points="202.089999999977,51.8499999998312 179.799999999908,52.0700000002705 "/><svg:polyline fill="none" stroke="black" stroke-width="5px" street_name="" points="209.789999999899,44.9700000004327 208.929999999974,45.740000000194 202.089999999977,51.8499999998312 200.079999999936,55.6100000004278 201.609999999874,58.3900000002302 205.180000000027,60.4799999997852 208.799999999876,62.1299999998826 210.129999999964,64.5400000003349 208.849999999927,66.8300000000954 203.89999999999,68.5600000004172 195.579999999929,67.3900000002448 187.000000000026,65.800000000138 181.659999999972,62.4700000003031 179.419999999908,58.0700000000434 179.799999999908,52.0700000002705 174.689999999877,46.3400000001002 173.929999999878,45.4900000001146 "/><svg:polyline fill="none" stroke="black" stroke-width="5px" street_name="" points="159.090000000006,40.8900000003598 168.809999999908,45.599999999979 173.929999999878,45.4900000001146 209.789999999899,44.9700000004327 213.950000000018,43.4800000000735 319.96000000003,41.0399999999811 "/><svg:polyline fill="none" stroke="black" stroke-width="5px" street_name="" points="83.3699999999382,38.6300000002393 83.7599999998773,41.2600000004204 "/><svg:polyline fill="none" stroke="black" stroke-width="5px" street_name="" points="83.1199999998589,36.7699999998194 83.3699999999382,38.6300000002393 "/><svg:polyline fill="none" stroke="black" stroke-width="5px" street_name="" points="808.589999999931,54.9900000002879 792.319999999869,71.4299999998502 "/><svg:polyline fill="none" stroke="black" stroke-width="5px" street_name="" points="773.539999999962,31.2100000002147 790.40999999993,30.9200000003784 808.589999999931,54.9900000002879 812.349999999995,56.4799999999366 885.099999999994,52.6800000002936 889.389999999857,51.4400000000137 891.609999999865,47.8100000002257 889.119999999899,31.1400000001072 928.949999999951,23.5600000003444 "/><svg:polyline fill="none" stroke="black" stroke-width="5px" street_name="Rohrteichstra&#xDF;e" points="430.049999999937,250.450000000058 342.749999999903,225.040000000121 "/><svg:polyline fill="none" stroke="black" stroke-width="5px" street_name="Rohrteichstra&#xDF;e" points="540.849999999971,284.58000000029 512.849999999965,275.890000000345 448.809999999966,255.729999999943 439.139999999938,253.010000000131 430.049999999937,250.450000000058 "/><svg:polyline fill="none" stroke="black" stroke-width="5px" street_name="Rohrteichstra&#xDF;e" points="195.499999999882,182.099999999963 123.449999999892,160.170000000193 "/><svg:polyline fill="none" stroke="black" stroke-width="5px" street_name="Rohrteichstra&#xDF;e" points="123.449999999892,160.170000000193 47.6299999998986,138.739999999871 11.7299999999432,128.589999999917 "/><svg:polyline fill="none" stroke="black" stroke-width="5px" street_name="Rohrteichstra&#xDF;e" points="-110.330000000047,92.7900000000648 -101.610000000107,95.3500000001384 11.7299999999432,128.589999999917 "/><svg:polyline fill="none" stroke="black" stroke-width="5px" street_name="" points="-133.570000000027,-6.319999999959691 -96.9100000000722,-0.459999999691263 -76.3499999999695,5.339999999875999 -33.2600000000127,16.2799999998242 24.5999999998858,30.089999999916 42.6799999999616,34.130000000232 52.3799999999852,35.9299999999507 83.0199999999337,35.9199999998339 145.279999999914,34.7400000002551 159.090000000006,40.8900000003598 "/><svg:polyline fill="none" stroke="black" stroke-width="5px" street_name="" points="159.090000000006,40.8900000003598 170.289999999973,33.6699999998302 252.470000000038,31.5800000002753 332.079999999912,29.5700000002341 392.959999999931,28.3199999998374 449.429999999928,27.1599999997818 458.989999999915,30.6899999998222 "/></svg>
